
<svg width="37px" height="37px" viewBox="0 0 37 37" version="1.1" xmlns="http://www.w3.org/2000/svg" xmlns:xlink="http://www.w3.org/1999/xlink">
    <g id="design" stroke="none" stroke-width="1" fill="none" fill-rule="evenodd">
        <g id="components" transform="translate(-82.000000, -1322.000000)">
            <g id="Group-22-Copy-2" transform="translate(82.500000, 1322.500000)">
                <rect id="Rectangle" x="0" y="0" width="36" height="36"></rect>
                <path d="M25.8141736,5.36136062 C26.9824303,5.36136062 27.9366249,6.27786964 27.9969701,7.43110024 L28,7.5471872 L28,21.4390514 C28,22.0952475 27.7108472,22.6839084 27.253006,23.0845695 C27.2561613,23.093432 27.2579738,23.1039376 27.259415,23.1145611 L27.263517,23.1755344 L27.263,27.9353606 L27.5506566,27.93564 C27.7988221,27.93564 28,28.1368179 28,28.3849834 C28,28.6124685 27.8309547,28.8004709 27.6116298,28.8302248 L27.5506566,28.8343268 L11.0540679,28.8343268 C9.41060189,28.8343268 8.07033062,27.5361957 8.00267928,25.9093586 L8,25.7802589 L8.00101871,25.7250963 L8,25.7107996 L8,8.33398693 C8.04314241,6.72270831 9.3284299,5.43039399 10.9240331,5.36403651 L11.0540679,5.36136062 L25.8141736,5.36136062 Z M26.3644092,23.5550384 C26.2246342,23.5912822 26.0794276,23.6140424 25.9302605,23.6218479 L25.8141736,23.6248778 L11.0540679,23.6248778 C9.86368379,23.6248778 8.89868679,24.5898748 8.89868679,25.7802589 C8.89868679,26.9322435 9.80243008,27.8731476 10.9395979,27.9326524 L11.0540679,27.93564 L26.364,27.9353606 L26.3644092,23.5550384 Z M25.8141736,6.26004724 L11.0539082,6.26004724 C9.92455672,6.2596459 8.99364621,7.12907761 8.90484299,8.23115736 L8.89850725,8.34596939 L8.89850725,23.6167771 L8.93744309,23.5786112 C9.45750808,23.0785073 10.1543611,22.7609156 10.9249682,22.7288703 L11.0540679,22.726191 L25.8141736,22.726191 C26.4941339,22.726191 27.0509482,22.1989402 27.0980814,21.5309736 L27.1013132,21.4390514 L27.1013132,7.5471872 C27.1013132,6.86722686 26.5740624,6.31041246 25.9060958,6.26327919 L25.8141736,6.26004724 Z M22.6256484,14.4440438 L22.6256484,15.3427306 L13.3743516,15.3427306 L13.3743516,14.4440438 L22.6256484,14.4440438 Z M19.5135007,12.2250126 L19.5135007,13.1236994 L13.3743516,13.1236994 L13.3743516,12.2250126 L19.5135007,12.2250126 Z" id="Combined-Shape" stroke="#D5D5D5" stroke-width="0.5" fill="#D5D5D5" fill-rule="nonzero"></path>
                <path d="M19.6383176,26.5221743 L17.2519533,26.5221743 L17.2519533,26.9419523 C17.3166719,27.6151449 17.1077318,28.1996956 16.4808246,29.1450521 L16.0415256,29.7928096 L15.8553129,30.0737134 L15.6900807,30.333655 C15.3433625,30.8940802 15.1486133,31.3183968 15.0125418,31.8163332 L14.9300177,32.1183197 L17.3666835,32.2248684 L17.449833,31.9342644 C17.5605555,31.5644826 17.7213166,31.2267273 18.0047825,30.7694779 L18.1589248,30.5273165 L18.3337487,30.2638222 L18.7335228,29.675381 L18.877894,29.4554519 C19.5666485,28.3822203 19.7978804,27.6256999 19.6692929,26.736398 L19.6383176,26.5221743 Z" id="Path" fill="#242424" fill-rule="nonzero"></path>
                <path d="M17.8014421,26.5221743 L11.2519533,26.5221743 L11.2519533,26.9419523 C11.3166719,27.6151449 11.1077318,28.1996956 10.4808246,29.1450521 L10.0415256,29.7928096 L9.85531289,30.0737134 L9.69008071,30.333655 C9.34336245,30.8940802 9.1486133,31.3183968 9.01254183,31.8163332 L8.93001773,32.1183197 L16.2171007,32.2248684 L17.8014421,26.5221743 Z" id="Path" fill="#242424" fill-rule="nonzero"></path>
                <path d="M16.4218661,26.7721743 C16.5446462,27.6213131 16.3025063,28.3309391 15.6688841,29.3182847 L15.5267284,29.5348959 L15.1254111,30.125636 L14.9480169,30.3930859 L14.7923008,30.6377526 C14.5013112,31.1071384 14.329272,31.4653451 14.2094783,31.8654925 L14.1805797,31.9664917 L12.2536995,31.8822345 C12.384301,31.4043148 12.5713871,31.0006808 12.9010844,30.4677351 L13.0636922,30.2118368 L13.2484342,29.9331266 L13.6891754,29.2832186 C14.318769,28.3338109 14.5747176,27.6851068 14.5019533,26.9419523 L14.5019533,26.7721743 L16.4218661,26.7721743 Z" id="Path-Copy-13" stroke="#0EE9A5" stroke-width="0.5" fill="#0EE9A5" fill-rule="nonzero"></path>
            </g>
        </g>
    </g>
</svg>
